:SAMPLES-PER-SECOND 30
:FRAME-RANGE 1-3358
:FULLY-SPECIFIED
:DEGREES
1260
root  59.0482 37.2657 19.632 7.32052 -47.5507 -4.62598
RightUpLeg  -22.8833 -3.92573 15.4113
RightLeg  31.7188 -11.4077 -7.76674
RightFoot  -16.2989 -0.351259 -5.56602
RightToes  -5.8209e-011 0 -3.6325e-017
Spine  6.28759 -4.12166 8.25553
Spine1  3.83514 -4.71015 5.86816
HEad  8.01639 -29.6082 2.94989
LeftShoulder1  1.40963 -0.56618 -28.546
LeftArm  12.0016 0.56963 -36.7168
LeftForeArm  4.19239 -14.0573 -11.8747
LeftHand  0.382494 -2.4398 -5.48653
RightShoulder  1.00072 -1.5345 44.9087
RightArm  -15.0518 -4.01126 3.03773
RightForeArm  6.10577 1.59515 13.5086
RightHand  -0.359757 2.96269 -5.22568
LeftUpLeg  -7.36466 29.041 6.50946
LeftLeg  59.7716 -6.94951 -12.1729
LeftFoot  6.90221 3.41735 -21.3296
LeftToes  -4.03819e-010 -8.71445e-011 8.52097e-011
1261
root  58.4775 37.4494 20.5567 7.1746 -50.7213 -4.36749
RightUpLeg  -20.3998 -1.28053 14.2798
RightLeg  31.2221 -11.2194 -7.51099
RightFoot  -17.2671 -0.359417 -4.68695
RightToes  -5.8209e-011 0 -3.6325e-017
Spine  6.59279 -4.0032 8.41687
Spine1  3.67269 -4.2355 5.25753
HEad  8.17439 -28.4308 3.15222
LeftShoulder1  1.34936 -0.353558 -28.8977
LeftArm  11.5991 3.1263 -34.7448
LeftForeArm  3.0384 -14.0051 -11.9798
LeftHand  0.371496 -2.25654 -5.46751
RightShoulder  1.1128 -1.32931 45.1734
RightArm  -14.5793 -4.08817 3.12041
RightForeArm  4.18521 -2.89642 13.9591
RightHand  -0.251521 2.6008 -3.86357
LeftUpLeg  -11.8932 26.2674 6.88989
LeftLeg  64.6907 -4.77629 -10.3042
LeftFoot  4.96992 2.63655 -18.4711
LeftToes  -4.03819e-010 -8.71445e-011 8.52097e-011
1262
root  57.8582 37.7546 21.5244 6.22728 -54.4104 -3.20319
RightUpLeg  -17.2819 2.04222 12.4609
RightLeg  29.6878 -11.0409 -6.95394
RightFoot  -17.7782 -0.329964 -3.72959
RightToes  -5.8209e-011 0 -3.6325e-017
Spine  6.8224 -3.62699 8.46333
Spine1  3.25055 -3.41678 3.99759
HEad  8.7793 -27.0456 2.90359
LeftShoulder1  1.28703 -0.133265 -29.3077
LeftArm  10.3683 5.80596 -32.7935
LeftForeArm  3.3493 -13.2058 -12.5307
LeftHand  0.377646 -2.16199 -5.63924
RightShoulder  1.39434 -0.794866 45.3231
RightArm  -13.7921 -4.26509 4.17713
RightForeArm  3.80584 -7.01133 14.2435
RightHand  -0.175239 2.28071 -2.84442
LeftUpLeg  -15.3826 23.5863 6.84853
LeftLeg  65.643 -2.67106 -5.79255
LeftFoot  5.08729 1.93477 -13.5665
LeftToes  -4.03819e-010 -8.71445e-011 8.52097e-011
1263
root  57.1616 38.1596 22.5237 4.52931 -58.4721 -1.08453
RightUpLeg  -13.6884 4.10822 10.2789
RightLeg  26.761 -9.5029 -5.6479
RightFoot  -17.9338 -0.293161 -2.9844
RightToes  -5.8209e-011 0 -3.6325e-017
Spine  6.87777 -2.9373 8.41039
Spine1  2.43473 -2.28645 2.1141
HEad  9.60177 -25.9351 2.43211
LeftShoulder1  1.21333 0.1126 -29.7034
LeftArm  10.6754 8.69073 -31.0438
LeftForeArm  3.36291 -12.8246 -12.8547
LeftHand  0.389097 -2.06579 -5.89939
RightShoulder  1.73717 -0.154273 45.5887
RightArm  -12.2734 -4.8917 5.65753
RightForeArm  5.32094 -8.18918 14.7975
RightHand  -0.137738 2.46442 -2.2371
LeftUpLeg  -17.9635 21.6259 6.59964
LeftLeg  63.3723 -0.822919 -1.17418
LeftFoot  3.63533 1.12877 -8.74412
LeftToes  -4.03819e-010 -8.71445e-011 8.52097e-011
1264
root  56.4257 38.5672 23.4909 2.05595 -62.3902 1.94196
RightUpLeg  -10.1336 3.68859 8.01648
RightLeg  23.1469 -5.50483 -4.07347
RightFoot  -17.8464 -0.272601 -2.67331
RightToes  -5.8209e-011 0 -3.6325e-017
Spine  6.71443 -2.132 7.92139
Spine1  1.74928 -1.22775 0.30748
HEad  9.8711 -24.7821 1.87441
LeftShoulder1  1.13772 0.358165 -30.0949
LeftArm  11.8087 11.5595 -29.6923
LeftForeArm  3.37262 -12.8264 -12.9465
LeftHand  0.424743 -2.24269 -6.2888
RightShoulder  2.10944 0.489769 46.3969
RightArm  -8.79052 -5.08872 6.78211
RightForeArm  6.17066 -7.8908 15.7507
RightHand  -0.10725 2.50543 -1.77983
LeftUpLeg  -20.0185 20.4493 6.24743
LeftLeg  58.6052 0.59086 1.57926
LeftFoot  1.40149 0.55333 -5.03063
LeftToes  -4.03819e-010 -8.71445e-011 8.52097e-011
1265
root  55.6712 38.904 24.3988 -0.867169 -65.7141 5.43103
RightUpLeg  -6.89837 2.2438 5.87757
RightLeg  19.6136 -0.727917 -3.18276
RightFoot  -17.5297 -0.258867 -2.59604
RightToes  -5.8209e-011 0 -3.6325e-017
Spine  6.45185 -1.45523 7.11047
Spine1  1.26245 -0.46996 -1.12124
HEad  9.42415 -23.6734 1.76753
LeftShoulder1  1.05883 0.607308 -30.4829
LeftArm  13.2698 14.3682 -28.5604
LeftForeArm  2.95187 -13.1889 -12.8056
LeftHand  0.476673 -2.501 -6.82364
RightShoulder  2.45597 1.0524 47.3322
RightArm  -3.97397 -4.93677 8.18439
RightForeArm  7.17647 -7.23082 16.6123
RightHand  -0.111544 2.89537 -1.78517
LeftUpLeg  -21.5765 19.6029 6.02566
LeftLeg  51.5412 1.04922 1.86537
LeftFoot  -0.020672 0.48886 -4.93062
LeftToes  -4.03819e-010 -8.71445e-011 8.52097e-011
1266
root  54.9105 39.1581 25.2723 -4.04467 -68.5508 9.08807
RightUpLeg  -3.8626 0.684712 3.78834
RightLeg  16.1545 3.76179 -2.8409
RightFoot  -17.2155 -0.235135 -2.3141
RightToes  -5.8209e-011 0 -3.6325e-017
Spine  5.97939 -0.898563 6.22794
Spine1  1.26368 0.0861169 -2.28491
HEad  8.41997 -22.705 1.69081
LeftShoulder1  0.989671 0.822163 -30.8329
LeftArm  13.7596 16.9883 -27.9127
LeftForeArm  2.40377 -13.4889 -12.6499
LeftHand  0.509206 -2.51219 -7.29027
RightShoulder  2.87965 1.74369 48.165
RightArm  1.84756 -4.47063 9.82528
RightForeArm  8.18111 -6.27207 17.3654
RightHand  -0.147953 3.343 -2.20926
LeftUpLeg  -22.4033 18.8966 5.86284
LeftLeg  42.281 0.0398354 0.420548
LeftFoot  -0.827928 0.594472 -6.40437
LeftToes  -4.03819e-010 -8.71445e-011 8.52097e-011
1267
root  54.1601 39.3027 26.1246 -6.5332 -70.5657 11.9869
RightUpLeg  -1.20481 -0.406611 1.93177
RightLeg  13.2032 6.87783 -2.82093
RightFoot  -17.1768 -0.209574 -1.83299
RightToes  -5.8209e-011 0 -3.6325e-017
Spine  5.51121 -0.56882 5.48197
Spine1  1.41442 0.360021 -3.07785
HEad  7.11215 -21.9874 1.71627
LeftShoulder1  0.932032 1.00162 -31.1759
LeftArm  13.0279 19.0777 -27.6231
LeftForeArm  2.348 -13.2459 -12.8104
LeftHand  0.526416 -2.40084 -7.66045
RightShoulder  3.27035 2.35868 48.9447
RightArm  7.9459 -3.73429 11.3304
RightForeArm  9.46708 -4.22595 17.9372
RightHand  -0.199637 4.36776 -2.65596
LeftUpLeg  -22.7023 17.5969 5.94972
LeftLeg  31.4157 -2.39965 -1.2412
LeftFoot  -1.43508 0.67015 -7.62701
LeftToes  -4.03819e-010 -8.71445e-011 8.52097e-011
1268
root  53.4239 39.359 26.9508 -8.83159 -72.1578 14.4248
RightUpLeg  1.30688 -1.00362 0.29399
RightLeg  10.8876 9.2749 -3.02148
RightFoot  -17.4157 -0.190801 -1.37628
RightToes  -5.8209e-011 0 -3.6325e-017
Spine  5.52179 -0.295343 4.66559
Spine1  1.4698 0.598506 -3.64631
HEad  6.08349 -21.6064 1.79678
LeftShoulder1  0.890601 1.12813 -31.4145
LeftArm  11.2183 20.5395 -27.6498
LeftForeArm  3.41824 -12.3822 -13.2906
LeftHand  0.541126 -2.41072 -7.86831
RightShoulder  3.82249 3.23767 49.7254
RightArm  13.8455 -3.10493 12.5681
RightForeArm  10.0919 -0.949561 18.1162
RightHand  -0.217824 4.96436 -2.74173
LeftUpLeg  -22.1001 15.848 6.22622
LeftLeg  19.2803 -5.1739 -1.69012
LeftFoot  -1.55701 0.752781 -8.67538
LeftToes  -4.03819e-010 -8.71445e-011 8.52097e-011
1269
root  52.6765 39.3255 27.7949 -11.3499 -73.5626 16.9179
RightUpLeg  3.58763 -1.10734 -1.2626
RightLeg  9.36442 10.9209 -3.44494
RightFoot  -18.2053 -0.145774 -0.377158
RightToes  -5.8209e-011 0 -3.6325e-017
Spine  5.51306 -0.0321245 3.89147
Spine1  1.81916 0.93089 -4.32644
HEad  5.24118 -21.4922 2.02371
LeftShoulder1  0.862913 1.1966 -31.3255
LeftArm  8.76173 21.536 -27.9789
LeftForeArm  5.09481 -11.1464 -13.8884
LeftHand  0.555063 -2.34583 -8.14887
RightShoulder  4.57843 4.366 50.9853
RightArm  20.3725 -1.90386 13.1254
RightForeArm  8.93053 1.92004 18.1071
RightHand  -0.209131 5.47687 -2.54852
LeftUpLeg  -20.691 10.3754 8.12834
LeftLeg  7.49758 -1.01606 -1.50236
LeftFoot  -1.18255 0.963284 -10.7352
LeftToes  -4.03819e-010 -8.71445e-011 8.52097e-011
1270
root  51.9028 39.1917 28.7067 -13.8907 -74.6904 19.228
RightUpLeg  5.71021 -0.263468 -2.67119
RightLeg  8.78138 11.2262 -3.87035
RightFoot  -19.4845 -0.0658039 0.928265
RightToes  -5.8209e-011 0 -3.6325e-017
Spine  5.54222 0.115397 3.23974
Spine1  2.38256 1.23302 -4.99797
HEad  4.65904 -21.65 2.25298
LeftShoulder1  0.85541 1.20608 -31.1521
LeftArm  6.52317 21.9877 -28.1743
LeftForeArm  6.65618 -9.78534 -14.487
LeftHand  0.585418 -2.33422 -8.6171
RightShoulder  5.50781 5.80281 51.8318
RightArm  23.7032 -0.569038 13.9795
RightForeArm  9.25345 3.17504 17.9632
RightHand  -0.2165 5.78248 -2.57199
LeftUpLeg  -20.3018 9.05838 8.51014
LeftLeg  0.128541 4.36354 -2.45677
LeftFoot  -1.69546 1.06583 -12.4738
LeftToes  -4.03819e-010 -8.71445e-011 8.52097e-011
1271
root  51.0526 38.9309 29.7476 -15.7216 -75.228 20.6433
RightUpLeg  7.60137 1.29491 -4.10907
RightLeg  9.695 10.698 -3.62806
RightFoot  -21.3314 0.0441625 2.15823
RightToes  -5.8209e-011 0 -3.6325e-017
Spine  5.58679 0.112928 2.89472
Spine1  2.7378 1.3123 -5.3356
HEad  4.52321 -22.0374 2.37434
LeftShoulder1  0.87905 1.1367 -31.0603
LeftArm  5.47295 21.8461 -28.0048
LeftForeArm  7.51759 -8.62594 -15.0066
LeftHand  0.590349 -2.16499 -8.90142
RightShoulder  6.36112 7.11711 52.4281
RightArm  24.0022 0.647568 14.7721
RightForeArm  10.814 3.53608 17.7647
RightHand  -0.204452 6.13898 -2.39034
LeftUpLeg  -20.6135 9.30909 7.61033
LeftLeg  -1.84489 8.26515 -3.69276
LeftFoot  -2.10175 1.23584 -15.0674
LeftToes  -4.03819e-010 -8.71445e-011 8.52097e-011
